# xmcd
#
# Track frame offsets: 
#        150
#        18427
#        37491
#        56287
#        72523
#        94297
#        110803
#        131523
#        145000
#        163533
#        182675
#        204760
#        217018
#        233611
#        249784
#
# Disc length: 3515 seconds
#
# Revision: 1
# Processed by: cddbd v1.5.2PL0 Copyright (c) Steve Scherf et al.
# Submitted via: ExactAudioCopyFreeDBPlugin 1.0
#
DISCID=d30db90f
DTITLE=群星 - DTS51和声王
DYEAR=2008
DGENRE=DTS
TTITLE0=追梦人
TTITLE1=机遇
TTITLE2=恰似你的温柔
TTITLE3=牧歌
TTITLE4=听妈妈讲那过去的事情
TTITLE5=让爱天天住我家
TTITLE6=牵手
TTITLE7=采红菱
TTITLE8=划船歌
TTITLE9=我们的田野
TTITLE10=马儿啊，你慢些走
TTITLE11=原野牧歌
TTITLE12=宝贝
TTITLE13=妈妈从我梦中走来
TTITLE14=走过咖啡屋
EXTD=
EXTT0=
EXTT1=
EXTT2=
EXTT3=
EXTT4=
EXTT5=
EXTT6=
EXTT7=
EXTT8=
EXTT9=
EXTT10=
EXTT11=
EXTT12=
EXTT13=
EXTT14=
PLAYORDER=
